<svg width="58" height="58" xmlns="http://www.w3.org/2000/svg" xmlns:xlink="http://www.w3.org/1999/xlink">
  <defs>
    <path d="M16.581 1.235c-1.14.973-2.283 1.943-3.424 2.914L.998 14.482c-.522.445-.553.776-.123 1.303.391.479.783.955 1.175 1.432.324.392.742.427 1.135.093 4.377-3.722 8.753-7.445 13.129-11.169l2.04-1.733c.079.062.143.109.203.159l4.263 3.627c3.567 3.035 7.134 6.071 10.702 9.105.419.356.826.314 1.175-.114.366-.448.732-.895 1.1-1.339.493-.598.468-.903-.128-1.409a1090.519 1090.519 0 0 0-4.363-3.691.615.615 0 0 1-.25-.532c.012-1.164.006-2.329.006-3.494l-.001-5.273c-.001-.534-.244-.792-.768-.819l-.088-.001c-1.31 0-2.618-.003-3.928.002-.62.001-.86.251-.861.873v4.215c-.11-.083-.167-.121-.218-.165-1.684-1.437-3.37-2.87-5.051-4.31a2.74 2.74 0 0 0-1.788-.685c-.624 0-1.248.226-1.778.678zm1.584 5.319c-4.099 3.449-8.201 6.898-12.295 10.355a.628.628 0 0 0-.192.426c-.012 3.556-.014 7.111.001 10.665.002.256.105.533.233.756.291.512.775.667 1.333.666 2.657-.004 5.314-.001 7.972-.001h.339v-8.615h5.633v8.615h2.717c1.871 0 3.741.002 5.611-.001.957-.003 1.545-.611 1.545-1.58 0-3.484-.002-6.969.003-10.454a.597.597 0 0 0-.233-.511c-3.33-2.793-6.655-5.592-9.981-8.39-.826-.695-1.654-1.391-2.483-2.086-.078.058-.142.105-.203.155z" id="a"/>
  </defs>
  <g fill="none" fill-rule="evenodd">
    <path d="M26.557 43.44h-.34c-2.657 0-5.314-.002-7.972.003-.558 0-1.042-.155-1.333-.666-.128-.224-.231-.501-.233-.756-.015-3.555-.012-7.11-.001-10.665a.633.633 0 0 1 .192-.427c4.094-3.457 8.196-6.906 12.296-10.354.06-.051.124-.098.202-.156.829.696 1.657 1.39 2.483 2.086 3.327 2.798 6.65 5.597 9.98 8.39a.594.594 0 0 1 .234.51c-.005 3.486-.004 6.972-.003 10.456 0 .968-.588 1.576-1.545 1.579-1.87.004-3.74 0-5.61 0H32.19v-8.614h-5.633v8.615zm9.64-23.868c-1.683-1.437-3.368-2.87-5.05-4.31-1.062-.91-2.502-.914-3.566-.007-1.14.973-2.282 1.943-3.424 2.914l-12.16 10.334c-.521.444-.551.776-.122 1.302.39.479.783.955 1.176 1.432.323.392.742.428 1.134.094l13.129-11.17c.679-.576 1.359-1.153 2.04-1.733.079.062.143.109.203.159l4.263 3.627 10.702 9.106c.419.355.827.313 1.176-.114.365-.45.732-.895 1.099-1.34.493-.598.468-.903-.127-1.408a1078.095 1078.095 0 0 0-4.363-3.692c-.176-.147-.254-.295-.251-.532.012-1.164.005-2.33.005-3.494v-5.273c-.001-.534-.244-.792-.768-.82h-.088c-1.31 0-2.618-.003-3.928.002-.62.002-.86.25-.861.873v4.216c-.11-.084-.166-.122-.218-.166z" fill="#4E4E4E"/>
    <g transform="translate(11 14.02)">
      <mask id="b" fill="#fff">
        <use xlink:href="#a"/>
      </mask>
      <path fill="#4E4E4E" mask="url(#b)" d="M-2 32h40.721V-2.02H-2z"/>
    </g>
  </g>
</svg>