<?xml version="1.0" encoding="utf-8"?>
<!-- Generator: Adobe Illustrator 19.0.1, SVG Export Plug-In . SVG Version: 6.00 Build 0)  -->
<!DOCTYPE svg PUBLIC "-//W3C//DTD SVG 1.1//EN" "http://www.w3.org/Graphics/SVG/1.1/DTD/svg11.dtd">
<svg version="1.1" id="Layer_1" xmlns="http://www.w3.org/2000/svg" xmlns:xlink="http://www.w3.org/1999/xlink" x="0px" y="0px"
	 width="240px" height="74px" viewBox="0 0 240 74" style="enable-background:new 0 0 240 74;" xml:space="preserve">
<style type="text/css">
	.st0{fill:#2350A0;}
	.st1{fill:#CC0033;}
</style>
<g id="XMLID_1552_">
	<g id="XMLID_1561_">
		<g id="XMLID_1562_">
			<path id="XMLID_1578_" class="st0" d="M93.8,55.1l-1.9-6.8H80.6l-1.9,6.8h-8.5l11.2-35.7h10l11.2,35.7H93.8z M86.3,27.8
				l-3.9,13.8h7.8L86.3,27.8z"/>
			<path id="XMLID_1575_" class="st0" d="M127.6,15.5v39.6H120l-0.1-3.5c-1.8,2.7-4.6,4.1-7.7,4.1c-2.4,0-4.5-0.9-6-2.5
				c-2.1-2.3-3.1-5.7-3.1-11.1c0-5.1,0.9-8.9,3.5-11.3c1.7-1.7,4.1-2.7,7.4-2.7c2.2,0,4,0.5,5.5,1.9V15.5H127.6z M117.6,46.9
				c1.4-1.8,2.2-4.1,2.2-6.7c0-1.9-0.4-3.3-1.3-4.2c-0.7-0.7-1.8-1.1-3.1-1.1c-3.2,0-3.7,2.2-3.7,7.1c0,5.1,0.6,6.8,2.6,6.8
				C115.6,48.8,116.7,48.1,117.6,46.9z"/>
			<path id="XMLID_1573_" class="st0" d="M140.1,28.7v4c1.6-3,4.1-4.7,7.7-4.7c3.5,0,5.8,1.6,6.9,4.8c1.7-3,4.3-4.8,7.9-4.8
				c4.8,0,7.5,3.3,7.5,9.4v17.7H162V38.8c0-2.2-0.4-3.3-1.9-3.3c-2.3,0-4.7,2.7-4.7,8.9v10.7h-8.1V38.7c0-2-0.3-3.2-1.9-3.2
				c-2.4,0-4.8,2.7-4.8,8.9v10.7h-8.1V28.7H140.1z"/>
			<path id="XMLID_1570_" class="st0" d="M179,15.1c2.7,0,4.8,2.1,4.8,4.9s-2,4.8-4.8,4.8c-2.7,0-4.8-2.1-4.8-4.8
				S176.3,15.1,179,15.1z M183,28.7v26.4h-8.1V28.7H183z"/>
			<path id="XMLID_1568_" class="st0" d="M195.5,28.7l-0.1,4.1c1.3-3,3.4-4.7,6.2-4.7c0.5,0,1.1,0.1,1.6,0.2l-0.6,7.9
				c-0.5-0.1-0.9-0.1-1.3-0.1c-4.3,0-5.3,5.1-5.3,10.2v8.9h-8.1V28.7H195.5z"/>
			<path id="XMLID_1565_" class="st0" d="M205.6,31.9c2.7-2.9,6.3-3.8,10.6-3.8c7.5,0,11,2.7,11,10.1v16.8h-6.9l-0.1-3.4
				c-1.9,2.8-4.7,4-7.7,4c-2.5,0-4.5-0.8-5.8-2.1c-1.6-1.4-2.3-3.4-2.3-6.1c0-3.2,1.1-5.4,3.3-6.8c2.3-1.6,5.7-2.1,9.2-2.1h2.8V38
				c0-2.9-1-3.8-3.9-3.8c-2.5,0-4.5,0.7-6.2,2.3L205.6,31.9z M216.5,43.8c-2.8,0-4.5,0.4-4.5,3.4c0,1.7,0.5,2.6,1.9,2.6
				c2.2,0,5.6-2.4,6-6.1H216.5z"/>
			<path id="XMLID_1563_" class="st0" d="M240,15.5v39.6h-8.1V15.5H240z"/>
		</g>
	</g>
	<g id="XMLID_1553_">
		<path id="XMLID_1560_" class="st1" d="M48.5,53.9c-0.5,1.9-1.6,3.5-3.1,4.8c-1.6,1.3-3.7,2.4-6.2,2.9c-2.6,0.6-5.4,0.6-8.3,0.3
			c-2.9-0.4-5.9-1.2-8.7-2.4c-2.9-1.2-5.6-2.8-8-4.6c-2.4-1.8-4.5-4-6.1-6.3c-1.6-2.3-2.6-4.6-3-6.8c-0.4-2.1-0.2-4.2,0.5-5.9
			c0.7-1.8,1.9-3.3,3.6-4.5c1.7-1.2,3.8-2,6.3-2.5c1.3-0.2,2.7-0.3,4.1-0.3c-0.3-0.5-0.5-0.9-0.6-1.3c-1.8,0-3.6,0.1-5.3,0.4
			c-3.2,0.5-5.9,1.6-8.1,3.1c-2.2,1.5-3.7,3.5-4.6,5.7c-0.9,2.3-1.2,4.9-0.7,7.6C0.7,47,1.9,50,4,53c2.1,3,4.8,5.8,7.9,8.2
			c3.1,2.4,6.6,4.4,10.3,6c3.7,1.5,7.5,2.6,11.3,3.1c3.7,0.5,7.4,0.3,10.7-0.5c3.3-0.8,5.9-2.1,7.9-3.9c1.9-1.8,3.2-3.9,3.8-6.3
			c0.6-2.3,0.5-4.8-0.2-7.4h-6.8C48.8,52.7,48.7,53.3,48.5,53.9z"/>
		<g id="XMLID_1554_">
			<path id="XMLID_1559_" class="st0" d="M22,16.6c0.6-2.7,1.7-11.6,7.3-15.1c-9-4.8-15.1,2-12.5,16.8C17.1,20.3,21.3,19.5,22,16.6z
				"/>
			<path id="XMLID_1558_" class="st0" d="M43.4,20.6c0.4,1.6,0.5,3,0.5,3c1.6,0.1,4.5,0.2,5.4,0.3c0-0.1,0-0.2,0.1-0.2
				c0.1-0.2,0.2-0.5,0.4-0.7c-0.3-0.3-0.6-0.8-0.8-1.1c-0.1-0.1,0-0.7,0.3-1.5C47.8,20.3,45,20.5,43.4,20.6z"/>
			<path id="XMLID_1557_" class="st0" d="M73.1,18.8c0,0-9.5,0.6-12.6,0.8l-1.4,0.5l0.4-0.7c-0.5-0.3-1.5-0.7-2.8-1c0,0,0,0,0,0
				c-0.2,0-0.3,0-0.6,0.2c-0.4-0.2-1-0.3-1.3-0.3c-0.3,0-0.4,0.1-0.6,0.4c-0.3-0.1-0.7-0.2-1-0.2c-0.2,0-0.4,0.1-0.6,0.4
				c-0.3-0.1-0.6-0.2-0.9-0.2c0,0,0,0-0.1,0c-0.4,0.2-0.9,0.7-1.3,1.6C50,21,49.9,21.4,50,21.6c0.3,0.9,0.5,1.2,0.5,1.2l-0.3,0.3
				c-0.1,0.5-0.1,1.3,0.1,2.4c0.5,0.8,1.4,1.8,3.1,2.7H52c0,0,0.9,7.6,0.3,11.4c-4,0-7.5-0.5-9.7-1c0.6-3.1,1.8-8.6,1.8-8.6L41,29.6
				l0.3-1.7l0.3-1.4c0.2,0,1.7-0.5,1.7-0.7c0-0.5-0.4-2.7-0.9-5.1l0.6-0.6l0.1-1.8l0.7,0.2c0,0,0,0,0-0.1c0.7-4,1.6-15.1,1.3-17.3
				c-0.1-1-5.2-1-5.3-1c-6.9,0-13.7,4.9-16.4,16.5C23,18,22.1,19.7,19,19.7c-1.4,0-1.7-0.4-1.7-0.4s3.6,4.2,13.5-0.5
				c6.5-3,10.2-0.4,10.2-0.4s0.2,0.4,0.3,1c0,0-1,0.9-1,0.9s1.1,1.8,1.7,5.1c-0.2,0.1-2.2,0.2-2.2,0.2s0.2,0.4,0.6,0.8
				c0,0.2-0.2,1.8-0.2,1.8l-0.4,1.3c0,0,0.8,0.7,0.7,1.5c-0.2,0.9-0.8,2-1.5,2c-2.4,0-6.3-1.3-8-2c-0.2-0.1-1.7,2.7-3.4,12.4
				c0.3-9.1-1.3-17.5-1.3-17.5s-2.6,0.2-3.1-3.8c-0.9,0-2.2-0.3-3.6-0.9c0,1.9,0.5,5.6,3.1,8l-5.3,1.1l0.8,7.6c0,0-4.2,1.3-11.6,2.6
				c0,0.1,0,0.2,0.1,0.4c0.3,1.9,1.2,3.8,2.6,5.8c1.4,2,3.2,3.8,5.3,5.4c2.1,1.6,4.4,2.9,6.9,4c2.5,1,5,1.7,7.5,2.1
				c2.5,0.3,4.9,0.3,7.2-0.2c2.2-0.5,4-1.4,5.4-2.5c1.3-1.1,2.2-2.5,2.6-4c0.1-0.6,0.2-1.1,0.3-1.2c0.1,0,12.8,0,14.1,0
				c4.7,0,4.8-22,4.8-22l-2,0C61.1,25.8,61,25,61,25L71,25.6L73.1,18.8z"/>
			<path id="XMLID_1556_" class="st0" d="M38.2,21.8c0.3-0.3,0.4-0.9,0.3-1.5l0.5-0.1l0.2-0.7c-2.4-1.6-4.1,1.2-4.1,1.2l1.6-0.3
				C36.4,21.6,37.6,22.5,38.2,21.8z"/>
			<path id="XMLID_1555_" class="st0" d="M40.4,27.4l-2.7,0.3c0,0,1.4,1.5,2.6,0.6c0.7-0.5,0.7-0.4,0.7-0.4L40.4,27.4z"/>
		</g>
	</g>
</g>
</svg>
