<svg width="58" height="58" xmlns="http://www.w3.org/2000/svg">
  <path d="M21.809 31.141c.005-1.346-1.104-2.444-2.46-2.463-1.499-.019-2.552 1.36-2.504 2.562.038.958.926 2.404 2.489 2.39a2.482 2.482 0 0 0 2.475-2.489m19.64.008c.002-1.362-1.114-2.464-2.476-2.47-1.481-.009-2.542 1.33-2.489 2.574.043 1.006.955 2.385 2.482 2.376a2.48 2.48 0 0 0 2.483-2.48m-21.015-5.687c5.019-.562 12.675-.612 17.765 0-.011-.045-.543-3.237-1.345-5.925-.338-1.459-14.524-1.62-15.086.053-.832 2.473-1.334 5.872-1.334 5.872m1.022 10.885v2.813c0 1.657-.54 1.833-2.616 1.833-2.026 0-2.671-.04-2.683-1.733-.005-.676-.001-2.459-.001-3.157-.085-.005-1.147-.205-1.15-.534-.015-2.008.003-4.015.003-6.022 0-2.665 2.066-3.514 2.066-3.514s1.047-4.156 1.558-6.236c.442-1.655.997-2.928 4.481-3.478 3.656-.425 8.819-.425 12.362-.004 3.127.423 3.987 1.557 4.437 3.327.535 2.103 1.576 6.315 1.576 6.315s2.088 1.133 2.088 3.657c.021 1.972.006 3.945.006 5.918 0 .378-1.178.568-1.224.58v.185c0 .601.001 1.2-.001 1.801 0 2.718-.531 2.901-2.512 2.901-2.337 0-2.793-.183-2.793-2.895.006-.586.001-.935.001-1.52v-.239c-4.707.551-10.76.551-15.598.002" fill="#4F4F4F" fill-rule="evenodd"/>
</svg>