<svg xmlns="http://www.w3.org/2000/svg" viewBox="0 0 58 58">
  <path fill="#4e4e4e" d="M30 29.1c-.9 0-1.5.9-1.5 1.6 0 .6.6 1.5 1.5 1.5.8 0 1.5-.7 1.5-1.6 0-.8-.7-1.5-1.5-1.5m11.1-5.8c-.2-.9-9.1-1-9.5 0-.6 1.5-.9 3.7-.9 3.7 3.1-.4 8.2-.4 11.3 0 0 0-.4-2.1-.9-3.7m1.4 5.8c-.9 0-1.6.9-1.5 1.7 0 .6.6 1.5 1.5 1.5.8 0 1.5-.7 1.5-1.6 0-.9-.7-1.6-1.5-1.6m2 4.6v1.2c0 1.7-.3 1.8-1.5 1.8-1.4 0-1.7-.2-1.7-1.7v-1.1c-2.9.4-6.8.4-9.9 0v1.7c0 1-.3 1.1-1.6 1.1s-1.7 0-1.7-1.1v-2c-.1 0-.7-.2-.7-.4v-3.8c0-1.7 1.2-2.2 1.2-2.2s.6-2.6 1-3.9c.3-1 .7-1.8 2.8-2.1 2.3-.2 5.5-.2 7.7 0 2 .2 2.5.9 2.8 2 .4 1.3.7 2.6 1 4 0 0 1.2.7 1.2 2.3v3.7c.1.4-.6.5-.6.5zM21.7 21.4l-8 6.6c-.2.2-.4.2-.6-.1-.2-.2-.4-.5-.6-.7-.3-.3-.2-.5.1-.7.8-.6 1.6-1.3 2.4-2 .1-.1.1-.2.1-.3v-3.1c0-.3.1-.4.4-.4h1.3c.3 0 .5.1.5.5v1.3l3.4-2.9c.5-.5 1.3-.5 1.9 0l5.3 4.4-.3 1.2-.2.8-5.7-4.6zm1.6 15v-5h-3v5h-4.9c-.2 0-.4-.2-.4-.4v-7.4l6.6-5.3 5 4c-.4.5-.7 1.3-.7 2.3v3.8c0 .5.3.9.7 1.1V35.7c0 .1 0 .4.1.7h-3.4zM36.1 15c-2.6 0-5.1.8-7.2 2.1-2.2-1.4-4.7-2.1-7.2-2.1C14.1 15 8 21.2 8 28.9s6.1 13.9 13.7 13.9c2.6 0 5.1-.8 7.2-2.1 2.2 1.4 4.7 2.1 7.2 2.1 7.6 0 13.7-6.2 13.7-13.9S43.7 15 36.1 15z"/>
</svg>