<svg width="58" height="58" xmlns="http://www.w3.org/2000/svg">
    <path fill="#4E4E4E" d="M38.706 37.165c-.476 3.346-2.714 5.192-6.02 2.643-1.16-.896-1.714-2.493-4.5-2.746-2.787-.252-3.363.282-5.374.735-3.888.877-5.057-.823-4.756-3.591.508-4.692 6.066-9.476 11.753-8.55 5.687.926 9.563 6.839 8.898 11.509M28.663 20.326c-.35 2.076-2.104 3.437-3.918 3.036-1.815-.399-3.004-2.407-2.654-4.484.35-2.076 2.238-4.23 4.053-3.829 1.815.4 2.87 3.201 2.52 5.277M22.028 23.678c.063 1.727-1.234 3.188-2.898 3.265-1.664.076-3.064-1.261-3.127-2.988-.063-1.726.996-3.957 2.66-4.034 1.664-.077 3.302 2.029 3.365 3.757M30.753 20.725c-.16 2.085 1.208 3.92 3.05 4.1 1.845.178 3.468-1.367 3.626-3.451.158-2.085-1.358-4.78-3.201-4.96-1.844-.178-3.317 2.227-3.475 4.31M36.822 25.929c-.322 1.718.893 3.4 2.713 3.76 1.82.359 3.557-.741 3.88-2.458.322-1.716-.762-4.096-2.582-4.454-1.82-.36-3.688 1.435-4.01 3.152"/>
</svg>