<?xml version="1.0" encoding="UTF-8"?>
<svg width="58px" height="58px" viewBox="0 0 58 58" version="1.1" xmlns="http://www.w3.org/2000/svg" xmlns:xlink="http://www.w3.org/1999/xlink">
    <!-- Generator: Sketch 52.5 (67469) - http://www.bohemiancoding.com/sketch -->
    <title>icon-travel</title>
    <desc>Created with Sketch.</desc>
    <defs>
        <polygon id="path-1" points="0.0006 0 26.887945 0 26.887945 26 0.0006 26"></polygon>
    </defs>
    <g id="icon-travel" stroke="none" stroke-width="1" fill="none" fill-rule="evenodd">
        <g id="Group-8" transform="translate(16.000000, 15.000000)">
            <path d="M13.7165,3.9131 C13.9875,3.6481 13.9845,3.4061 13.7165,3.1431 L11.7485,1.2211 C11.5055,0.9821 11.2015,0.9861 10.9625,1.2211 L8.6015,3.5281 L12.9295,4.6831 L13.7165,3.9131 Z" id="Fill-1" fill="#4E4E4E"></path>
            <path d="M23.511,12.7568 C23.242,12.4938 22.994,12.4918 22.724,12.7568 L21.937,13.5268 L23.117,17.7588 L25.478,15.4498 C25.718,15.2158 25.721,14.9188 25.478,14.6808 L23.511,12.7568 Z" id="Fill-3" fill="#4E4E4E"></path>
            <g id="Group-7">
                <mask id="mask-2" fill="white">
                    <use xlink:href="#path-1"></use>
                </mask>
                <g id="Clip-6"></g>
                <path d="M25.1316,5.9941 C26.2756,4.8751 27.3956,0.9761 26.6436,0.2411 C25.8766,-0.5099 21.8726,0.6341 20.7616,1.7211 L16.3986,6.2331 C13.1336,5.6171 3.3126,3.7651 2.1366,3.5801 C1.0356,4.1661 0.0006,4.9561 0.0006,4.9561 L11.0366,11.7801 L6.6816,16.2851 L3.1416,15.8991 L1.5726,17.4321 L5.0956,19.2131 L4.3776,21.8831 L7.1296,21.1741 L9.0486,24.7431 L10.6166,23.2101 L10.2226,19.7481 L14.7666,15.5561 L21.5206,26.0001 C21.5206,26.0001 22.3276,24.9881 22.9266,23.9111 C22.7456,22.8131 21.0146,14.0231 20.3076,10.4431 L25.1316,5.9941 Z" id="Fill-5" fill="#4E4E4E" mask="url(#mask-2)"></path>
            </g>
        </g>
    </g>
</svg>