<?xml version="1.0" encoding="UTF-8"?>
<svg width="58px" height="58px" viewBox="0 0 58 58" version="1.1" xmlns="http://www.w3.org/2000/svg" xmlns:xlink="http://www.w3.org/1999/xlink">
    <!-- Generator: Sketch 52.5 (67469) - http://www.bohemiancoding.com/sketch -->
    <title>icon-van</title>
    <desc>Created with Sketch.</desc>
    <defs>
        <polygon id="path-1" points="0 0 36.5526 0 36.5526 22.6688 0 22.6688"></polygon>
    </defs>
    <g id="icon-van" stroke="none" stroke-width="1" fill="none" fill-rule="evenodd">
        <g id="Group-8" transform="translate(11.000000, 16.000000)">
            <g id="Group-3">
                <mask id="mask-2" fill="white">
                    <use xlink:href="#path-1"></use>
                </mask>
                <g id="Clip-2"></g>
                <path d="M7.5766,7.3428 C7.7056,7.1358 7.9986,6.9678 8.2426,6.9678 L10.4236,6.9678 L10.4516,13.9358 L4.7556,13.9358 C4.0376,13.9358 3.7686,13.4348 4.1456,12.8308 L7.5766,7.3428 Z M33.4666,22.6538 C34.2866,22.6558 34.7656,22.6578 34.7656,22.6578 C35.7526,22.6608 36.5526,21.8578 36.5526,20.8668 L36.5526,2.6118 C36.5526,1.1688 35.3776,-0.0002 33.9366,-0.0002 L14.7456,-0.0002 C12.3446,-0.0002 10.3976,1.9518 10.3976,4.3528 L10.3976,4.3548 L8.1166,4.3548 C7.1556,4.3548 5.9576,5.0088 5.4346,5.8258 L0.9406,12.8558 C0.4216,13.6678 -0.0004,15.1078 -0.0004,16.0668 L-0.0004,20.8848 C-0.0004,21.8458 0.7856,22.6248 1.7496,22.6248 L3.4756,22.6248 C3.7066,19.9518 5.9496,17.8548 8.6816,17.8548 C11.4296,17.8548 13.6816,19.9758 13.8916,22.6688 C14.0316,22.6678 14.1776,22.6658 14.3306,22.6638 C16.4876,22.6428 19.5546,22.6348 22.6576,22.6338 C22.9846,19.9418 25.2796,17.8548 28.0606,17.8548 C30.8486,17.8548 33.1476,19.9508 33.4666,22.6538 Z" id="Fill-1" fill="#4F4F4F" mask="url(#mask-2)"></path>
            </g>
            <path d="M8.6796,26.5645 C6.7576,26.5645 5.1976,25.0045 5.1976,23.0815 C5.1976,21.1565 6.7576,19.5965 8.6816,19.5965 C10.6056,19.5965 12.1656,21.1565 12.1656,23.0815 C12.1656,25.0045 10.6056,26.5645 8.6796,26.5645" id="Fill-4" fill="#4F4F4F"></path>
            <path d="M28.0605,27 C26.0165,27 24.3585,25.343 24.3585,23.299 C24.3585,21.254 26.0165,19.597 28.0605,19.597 C30.1045,19.597 31.7625,21.254 31.7625,23.299 C31.7625,25.343 30.1045,27 28.0605,27" id="Fill-6" fill="#4F4F4F"></path>
        </g>
    </g>
</svg>